<mxfile host="Electron" modified="2023-12-30T23:07:57.291Z" agent="Mozilla/5.0 (Macintosh; Intel Mac OS X 10_15_7) AppleWebKit/537.36 (KHTML, like Gecko) draw.io/22.1.11 Chrome/114.0.5735.289 Electron/25.9.8 Safari/537.36" etag="pQ08IH9_X02gCUTsGx3f" version="22.1.11" type="device">
  <diagram name="Page-1" id="8zFKbIF-x4W76hDdfeIt">
    <mxGraphModel dx="834" dy="2863" grid="1" gridSize="10" guides="1" tooltips="1" connect="1" arrows="1" fold="1" page="1" pageScale="1" pageWidth="827" pageHeight="1169" math="0" shadow="0">
      <root>
        <mxCell id="0" />
        <mxCell id="1" parent="0" />
        <mxCell id="s6gPexedd3UbNPSYN4ua-13" style="edgeStyle=orthogonalEdgeStyle;rounded=0;orthogonalLoop=1;jettySize=auto;html=1;entryX=0.5;entryY=0;entryDx=0;entryDy=0;" edge="1" parent="1" target="6hrUjLOy1iN7DgCjd3hs-11">
          <mxGeometry relative="1" as="geometry">
            <mxPoint x="440" y="400" as="sourcePoint" />
          </mxGeometry>
        </mxCell>
        <mxCell id="s6gPexedd3UbNPSYN4ua-11" style="edgeStyle=orthogonalEdgeStyle;rounded=0;orthogonalLoop=1;jettySize=auto;html=1;" edge="1" parent="1" source="6hrUjLOy1iN7DgCjd3hs-8" target="6hrUjLOy1iN7DgCjd3hs-10">
          <mxGeometry relative="1" as="geometry" />
        </mxCell>
        <mxCell id="6hrUjLOy1iN7DgCjd3hs-8" value="PMX recombination operator&lt;br&gt;+&amp;nbsp;&lt;br&gt;Inversion mutation" style="rounded=1;whiteSpace=wrap;html=1;" parent="1" vertex="1">
          <mxGeometry x="280" y="140" width="320" height="80" as="geometry" />
        </mxCell>
        <mxCell id="s6gPexedd3UbNPSYN4ua-15" style="edgeStyle=orthogonalEdgeStyle;rounded=0;orthogonalLoop=1;jettySize=auto;html=1;" edge="1" parent="1" source="6hrUjLOy1iN7DgCjd3hs-9" target="s6gPexedd3UbNPSYN4ua-10">
          <mxGeometry relative="1" as="geometry" />
        </mxCell>
        <mxCell id="6hrUjLOy1iN7DgCjd3hs-9" value="Inversion mutation&lt;br&gt;" style="rounded=1;whiteSpace=wrap;html=1;" parent="1" vertex="1">
          <mxGeometry x="640" y="140" width="220" height="85" as="geometry" />
        </mxCell>
        <mxCell id="s6gPexedd3UbNPSYN4ua-12" style="edgeStyle=orthogonalEdgeStyle;rounded=0;orthogonalLoop=1;jettySize=auto;html=1;entryX=0.5;entryY=0;entryDx=0;entryDy=0;" edge="1" parent="1" source="6hrUjLOy1iN7DgCjd3hs-10" target="6hrUjLOy1iN7DgCjd3hs-11">
          <mxGeometry relative="1" as="geometry">
            <mxPoint x="440" y="370" as="targetPoint" />
          </mxGeometry>
        </mxCell>
        <mxCell id="6hrUjLOy1iN7DgCjd3hs-10" value="Local search operator:&lt;br&gt;2-opt edge swap" style="rounded=1;whiteSpace=wrap;html=1;" parent="1" vertex="1">
          <mxGeometry x="280" y="270" width="320" height="60" as="geometry" />
        </mxCell>
        <mxCell id="s6gPexedd3UbNPSYN4ua-7" style="edgeStyle=orthogonalEdgeStyle;rounded=0;orthogonalLoop=1;jettySize=auto;html=1;" edge="1" parent="1" source="6hrUjLOy1iN7DgCjd3hs-11" target="s6gPexedd3UbNPSYN4ua-3">
          <mxGeometry relative="1" as="geometry" />
        </mxCell>
        <mxCell id="6hrUjLOy1iN7DgCjd3hs-11" value="Fitness sharing elimination&lt;br&gt;or&lt;br&gt;(lambda + mu) elimination" style="rounded=1;whiteSpace=wrap;html=1;" parent="1" vertex="1">
          <mxGeometry x="280" y="390" width="320" height="70" as="geometry" />
        </mxCell>
        <mxCell id="s6gPexedd3UbNPSYN4ua-4" style="edgeStyle=orthogonalEdgeStyle;rounded=0;orthogonalLoop=1;jettySize=auto;html=1;entryX=0.5;entryY=0;entryDx=0;entryDy=0;" edge="1" parent="1" source="s6gPexedd3UbNPSYN4ua-1" target="s6gPexedd3UbNPSYN4ua-2">
          <mxGeometry relative="1" as="geometry">
            <mxPoint x="440" y="10" as="targetPoint" />
          </mxGeometry>
        </mxCell>
        <mxCell id="s6gPexedd3UbNPSYN4ua-1" value="Random valid initialization (80%)&lt;br&gt;+&lt;br&gt;&amp;nbsp;Greedy initialization (20%)" style="rounded=1;whiteSpace=wrap;html=1;" vertex="1" parent="1">
          <mxGeometry x="280" y="-50" width="320" height="70" as="geometry" />
        </mxCell>
        <mxCell id="s6gPexedd3UbNPSYN4ua-16" style="edgeStyle=orthogonalEdgeStyle;rounded=0;orthogonalLoop=1;jettySize=auto;html=1;entryX=0.5;entryY=0;entryDx=0;entryDy=0;" edge="1" parent="1" source="s6gPexedd3UbNPSYN4ua-2" target="6hrUjLOy1iN7DgCjd3hs-9">
          <mxGeometry relative="1" as="geometry" />
        </mxCell>
        <mxCell id="s6gPexedd3UbNPSYN4ua-26" value="Non-selected population" style="edgeLabel;html=1;align=center;verticalAlign=middle;resizable=0;points=[];" vertex="1" connectable="0" parent="s6gPexedd3UbNPSYN4ua-16">
          <mxGeometry x="-0.4727" y="-1" relative="1" as="geometry">
            <mxPoint x="12" y="-1" as="offset" />
          </mxGeometry>
        </mxCell>
        <mxCell id="s6gPexedd3UbNPSYN4ua-25" style="edgeStyle=orthogonalEdgeStyle;rounded=0;orthogonalLoop=1;jettySize=auto;html=1;entryX=0.5;entryY=0;entryDx=0;entryDy=0;" edge="1" parent="1" source="s6gPexedd3UbNPSYN4ua-2" target="6hrUjLOy1iN7DgCjd3hs-8">
          <mxGeometry relative="1" as="geometry" />
        </mxCell>
        <mxCell id="s6gPexedd3UbNPSYN4ua-27" value="Selected population" style="edgeLabel;html=1;align=center;verticalAlign=middle;resizable=0;points=[];" vertex="1" connectable="0" parent="s6gPexedd3UbNPSYN4ua-25">
          <mxGeometry x="-0.12" y="1" relative="1" as="geometry">
            <mxPoint as="offset" />
          </mxGeometry>
        </mxCell>
        <mxCell id="s6gPexedd3UbNPSYN4ua-2" value="k-tournament selection" style="rounded=1;whiteSpace=wrap;html=1;" vertex="1" parent="1">
          <mxGeometry x="280" y="50" width="320" height="40" as="geometry" />
        </mxCell>
        <mxCell id="s6gPexedd3UbNPSYN4ua-17" style="edgeStyle=orthogonalEdgeStyle;rounded=0;orthogonalLoop=1;jettySize=auto;html=1;" edge="1" parent="1" source="s6gPexedd3UbNPSYN4ua-3">
          <mxGeometry relative="1" as="geometry">
            <mxPoint x="280" y="70" as="targetPoint" />
            <Array as="points">
              <mxPoint x="190" y="515" />
              <mxPoint x="190" y="70" />
            </Array>
          </mxGeometry>
        </mxCell>
        <mxCell id="s6gPexedd3UbNPSYN4ua-3" value="Update parameter control" style="rounded=1;whiteSpace=wrap;html=1;" vertex="1" parent="1">
          <mxGeometry x="280" y="490" width="320" height="50" as="geometry" />
        </mxCell>
        <mxCell id="s6gPexedd3UbNPSYN4ua-14" style="edgeStyle=orthogonalEdgeStyle;rounded=0;orthogonalLoop=1;jettySize=auto;html=1;entryX=0.5;entryY=0;entryDx=0;entryDy=0;" edge="1" parent="1" source="s6gPexedd3UbNPSYN4ua-10" target="6hrUjLOy1iN7DgCjd3hs-11">
          <mxGeometry relative="1" as="geometry">
            <Array as="points">
              <mxPoint x="750" y="360" />
              <mxPoint x="440" y="360" />
            </Array>
          </mxGeometry>
        </mxCell>
        <mxCell id="s6gPexedd3UbNPSYN4ua-10" value="Local search operator:&lt;br&gt;2-opt edge swap" style="rounded=1;whiteSpace=wrap;html=1;" vertex="1" parent="1">
          <mxGeometry x="640" y="270" width="220" height="60" as="geometry" />
        </mxCell>
      </root>
    </mxGraphModel>
  </diagram>
</mxfile>
